HIERARCHY
ROOT Root
{
OFFSET 0.000000 0.000000 0.000000
  CHANNELS 6 Xposition Yposition Zposition Zrotation Yrotation Xrotation
 JOINT Hips
 {
   OFFSET -0.00455359416082507 101.28157745081357 1.7763568394002505e-15
   CHANNELS 6 Xposition Yposition Zposition Zrotation Yrotation Xrotation
  JOINT Spine1
  {
    OFFSET 5.003913 -0.037094 -0.013727
    CHANNELS 3 Zrotation Yrotation Xrotation
   JOINT Spine2
   {
     OFFSET 7.125363 -0.000001 -0.000000
     CHANNELS 3 Zrotation Yrotation Xrotation
    JOINT Chest
    {
      OFFSET 7.594027 0.000001 -0.000000
      CHANNELS 3 Zrotation Yrotation Xrotation
     JOINT Neck1
     {
       OFFSET 26.313085 -0.460272 -0.181672
       CHANNELS 3 Zrotation Yrotation Xrotation
      JOINT Neck2
      {
        OFFSET 8.045911 -0.000000 0.000000
        CHANNELS 3 Zrotation Yrotation Xrotation
       JOINT Head
       {
         OFFSET 6.432774 0.000000 0.000000
         CHANNELS 3 Zrotation Yrotation Xrotation
        JOINT HeadEnd
        {
          OFFSET 16.169773 0.064510 0.003620
          CHANNELS 3 Zrotation Yrotation Xrotation
        }
        JOINT Jaw
        {
          OFFSET 0.108741 3.129380 0.002639
          CHANNELS 3 Zrotation Yrotation Xrotation
        }
        JOINT LeftEye
        {
          OFFSET 4.451730 8.166359 3.206392
          CHANNELS 3 Zrotation Yrotation Xrotation
        }
        JOINT RightEye
        {
          OFFSET 4.436895 8.135758 -3.222429
          CHANNELS 3 Zrotation Yrotation Xrotation
        }
       }
      }
     }
     JOINT LeftShoulder
     {
       OFFSET 23.218928 5.195579 1.621656
       CHANNELS 3 Zrotation Yrotation Xrotation
      JOINT LeftArm
      {
        OFFSET 15.902118 0.000002 -0.000002
        CHANNELS 3 Zrotation Yrotation Xrotation
       JOINT LeftForeArm
       {
         OFFSET 28.739307 0.000000 -0.000001
         CHANNELS 3 Zrotation Yrotation Xrotation
        JOINT LeftHand
        {
          OFFSET 27.093980 -0.000004 -0.000000
          CHANNELS 3 Zrotation Yrotation Xrotation
         JOINT LeftHandThumb1
         {
           OFFSET 2.276781 3.380274 0.833840
           CHANNELS 3 Zrotation Yrotation Xrotation
          JOINT LeftHandThumb2
          {
            OFFSET 4.705309 -0.000001 -0.000001
            CHANNELS 3 Zrotation Yrotation Xrotation
           JOINT LeftHandThumb3
           {
             OFFSET 2.798515 -0.000000 0.000003
             CHANNELS 3 Zrotation Yrotation Xrotation
            JOINT LeftHandThumbEnd
            {
              OFFSET 3.180793 0.000004 -0.000004
              CHANNELS 3 Zrotation Yrotation Xrotation
            }
           }
          }
         }
         JOINT LeftHandIndex1
         {
           OFFSET 3.247786 2.352677 0.137192
           CHANNELS 3 Zrotation Yrotation Xrotation
          JOINT LeftHandIndex2
          {
            OFFSET 6.367095 0.000001 -0.000000
            CHANNELS 3 Zrotation Yrotation Xrotation
           JOINT LeftHandIndex3
           {
             OFFSET 3.662364 -0.000000 0.000000
             CHANNELS 3 Zrotation Yrotation Xrotation
            JOINT LeftHandIndex4
            {
              OFFSET 2.329242 0.000004 -0.000004
              CHANNELS 3 Zrotation Yrotation Xrotation
             JOINT LeftHandIndexEnd
             {
               OFFSET 2.767823 0.000001 0.000000
               CHANNELS 3 Zrotation Yrotation Xrotation
             }
            }
           }
          }
         }
         JOINT LeftHandMiddle1
         {
           OFFSET 3.163612 0.945023 -0.406112
           CHANNELS 3 Zrotation Yrotation Xrotation
          JOINT LeftHandMiddle2
          {
            OFFSET 6.276789 0.000003 -0.000000
            CHANNELS 3 Zrotation Yrotation Xrotation
           JOINT LeftHandMiddle3
           {
             OFFSET 4.356520 -0.000001 0.000004
             CHANNELS 3 Zrotation Yrotation Xrotation
            JOINT LeftHandMiddle4
            {
              OFFSET 2.996877 -0.000000 0.000008
              CHANNELS 3 Zrotation Yrotation Xrotation
             JOINT LeftHandMiddleEnd
             {
               OFFSET 2.323256 0.000003 -0.000004
               CHANNELS 3 Zrotation Yrotation Xrotation
             }
            }
           }
          }
         }
         JOINT LeftHandRing1
         {
           OFFSET 2.882606 -0.309162 0.107445
           CHANNELS 3 Zrotation Yrotation Xrotation
          JOINT LeftHandRing2
          {
            OFFSET 6.033198 0.000000 0.000004
            CHANNELS 3 Zrotation Yrotation Xrotation
           JOINT LeftHandRing3
           {
             OFFSET 4.350578 0.000003 -0.000000
             CHANNELS 3 Zrotation Yrotation Xrotation
            JOINT LeftHandRing4
            {
              OFFSET 2.651321 0.000002 -0.000007
              CHANNELS 3 Zrotation Yrotation Xrotation
             JOINT LeftHandRingEnd
             {
               OFFSET 1.937663 0.000001 -0.000004
               CHANNELS 3 Zrotation Yrotation Xrotation
             }
            }
           }
          }
         }
         JOINT LeftHandPinky1
         {
           OFFSET 2.865315 -1.525436 0.575687
           CHANNELS 3 Zrotation Yrotation Xrotation
          JOINT LeftHandPinky2
          {
            OFFSET 5.549360 0.000001 -0.000008
            CHANNELS 3 Zrotation Yrotation Xrotation
           JOINT LeftHandPinky3
           {
             OFFSET 3.070974 0.000000 -0.000004
             CHANNELS 3 Zrotation Yrotation Xrotation
            JOINT LeftHandPinky4
            {
              OFFSET 1.549672 0.000001 -0.000000
              CHANNELS 3 Zrotation Yrotation Xrotation
             JOINT LeftHandPinkyEnd
             {
               OFFSET 1.952123 -0.000000 0.000000
               CHANNELS 3 Zrotation Yrotation Xrotation
             }
            }
           }
          }
         }
        }
       }
      }
     }
     JOINT RightShoulder
     {
       OFFSET 23.161717 5.296122 -1.380114
       CHANNELS 3 Zrotation Yrotation Xrotation
      JOINT RightArm
      {
        OFFSET -16.027195 -0.000002 0.000011
        CHANNELS 3 Zrotation Yrotation Xrotation
       JOINT RightForeArm
       {
         OFFSET -28.736639 0.000004 0.000002
         CHANNELS 3 Zrotation Yrotation Xrotation
        JOINT RightHand
        {
          OFFSET -27.133619 0.000006 0.000000
          CHANNELS 3 Zrotation Yrotation Xrotation
         JOINT RightHandThumb1
         {
           OFFSET -2.274328 -3.351035 -0.830670
           CHANNELS 3 Zrotation Yrotation Xrotation
          JOINT RightHandThumb2
          {
            OFFSET -4.703594 -0.000003 0.000002
            CHANNELS 3 Zrotation Yrotation Xrotation
           JOINT RightHandThumb3
           {
             OFFSET -2.794935 -0.000004 -0.000003
             CHANNELS 3 Zrotation Yrotation Xrotation
            JOINT RightHandThumbEnd
            {
              OFFSET -3.183852 0.000004 0.000001
              CHANNELS 3 Zrotation Yrotation Xrotation
            }
           }
          }
         }
         JOINT RightHandIndex1
         {
           OFFSET -3.253496 -2.337550 -0.127667
           CHANNELS 3 Zrotation Yrotation Xrotation
          JOINT RightHandIndex2
          {
            OFFSET -6.344434 0.000000 -0.000000
            CHANNELS 3 Zrotation Yrotation Xrotation
           JOINT RightHandIndex3
           {
             OFFSET -3.654871 0.000000 -0.000008
             CHANNELS 3 Zrotation Yrotation Xrotation
            JOINT RightHandIndex4
            {
              OFFSET -2.327586 -0.000001 -0.000000
              CHANNELS 3 Zrotation Yrotation Xrotation
             JOINT RightHandIndexEnd
             {
               OFFSET -2.770001 0.000003 0.000008
               CHANNELS 3 Zrotation Yrotation Xrotation
             }
            }
           }
          }
         }
         JOINT RightHandMiddle1
         {
           OFFSET -3.168223 -0.944764 0.411762
           CHANNELS 3 Zrotation Yrotation Xrotation
          JOINT RightHandMiddle2
          {
            OFFSET -6.266691 -0.000001 -0.000004
            CHANNELS 3 Zrotation Yrotation Xrotation
           JOINT RightHandMiddle3
           {
             OFFSET -4.348901 -0.000000 -0.000000
             CHANNELS 3 Zrotation Yrotation Xrotation
            JOINT RightHandMiddle4
            {
              OFFSET -3.000240 0.000002 -0.000004
              CHANNELS 3 Zrotation Yrotation Xrotation
             JOINT RightHandMiddleEnd
             {
               OFFSET -2.321477 -0.000004 -0.000004
               CHANNELS 3 Zrotation Yrotation Xrotation
             }
            }
           }
          }
         }
         JOINT RightHandRing1
         {
           OFFSET -2.885654 0.293261 -0.119232
           CHANNELS 3 Zrotation Yrotation Xrotation
          JOINT RightHandRing2
          {
            OFFSET -6.032835 -0.000001 -0.000004
            CHANNELS 3 Zrotation Yrotation Xrotation
           JOINT RightHandRing3
           {
             OFFSET -4.338810 0.000000 -0.000004
             CHANNELS 3 Zrotation Yrotation Xrotation
            JOINT RightHandRing4
            {
              OFFSET -2.654903 -0.000004 -0.000004
              CHANNELS 3 Zrotation Yrotation Xrotation
             JOINT RightHandRingEnd
             {
               OFFSET -1.935122 0.000000 0.000004
               CHANNELS 3 Zrotation Yrotation Xrotation
             }
            }
           }
          }
         }
         JOINT RightHandPinky1
         {
           OFFSET -2.866241 1.503904 -0.605270
           CHANNELS 3 Zrotation Yrotation Xrotation
          JOINT RightHandPinky2
          {
            OFFSET -5.553177 -0.000002 0.000000
            CHANNELS 3 Zrotation Yrotation Xrotation
           JOINT RightHandPinky3
           {
             OFFSET -3.062664 -0.000001 -0.000004
             CHANNELS 3 Zrotation Yrotation Xrotation
            JOINT RightHandPinky4
            {
              OFFSET -1.546529 0.000002 0.000004
              CHANNELS 3 Zrotation Yrotation Xrotation
             JOINT RightHandPinkyEnd
             {
               OFFSET -1.952341 -0.000000 -0.000004
               CHANNELS 3 Zrotation Yrotation Xrotation
             }
            }
           }
          }
         }
        }
       }
      }
     }
    }
   }
  }
  JOINT LeftLeg
  {
    OFFSET -8.443107 2.567604 10.043214
    CHANNELS 3 Zrotation Yrotation Xrotation
   JOINT LeftShin
   {
     OFFSET 43.229200 0.000001 -0.000001
     CHANNELS 3 Zrotation Yrotation Xrotation
    JOINT LeftFoot
    {
      OFFSET 42.298609 0.000001 0.000001
      CHANNELS 3 Zrotation Yrotation Xrotation
     JOINT LeftToeBase
     {
       OFFSET 14.165858 0.000001 0.000000
       CHANNELS 3 Zrotation Yrotation Xrotation
      JOINT LeftToeEnd
      {
        OFFSET 6.714100 -0.234461 0.000000
        CHANNELS 3 Zrotation Yrotation Xrotation
      }
     }
    }
   }
  }
  JOINT RightLeg
  {
    OFFSET -8.303923 2.592729 -10.047278
    CHANNELS 3 Zrotation Yrotation Xrotation
   JOINT RightShin
   {
     OFFSET -43.369684 -0.000000 0.000001
     CHANNELS 3 Zrotation Yrotation Xrotation
    JOINT RightFoot
    {
      OFFSET -42.260785 0.000004 0.000002
      CHANNELS 3 Zrotation Yrotation Xrotation
     JOINT RightToeBase
     {
       OFFSET -14.222245 -0.000002 -0.000001
       CHANNELS 3 Zrotation Yrotation Xrotation
      JOINT RightToeEnd
      {
        OFFSET -6.660062 0.232574 -0.000002
        CHANNELS 3 Zrotation Yrotation Xrotation
      }
     }
    }
   }
  }
 }
}
MOTION
Frames: 4
Frame Time: 0.008333
0.000000 0.000000 0.000000 0.000000 0.000000 0.000000 0.947162 98.996216 -3.248466 91.195544 0.691284 94.462778 -3.615303 0.277134 0.245397 -11.616636 -0.015556 -0.150381 17.296089 -0.996800 -2.422663 21.690285 -0.307937 2.648061 -2.523538 -0.766532 -4.142403 -29.899600 -3.862569 -3.140619 0.000006 0.000000 0.000000 0.000006 0.000000 0.000000 0.006974 0.000052 0.000311 0.006971 0.000052 0.000310 68.623910 -106.255611 -57.576829 22.806508 -64.846284 6.402009 21.671510 -0.000041 -0.000561 -0.364270 -11.545746 -8.800733 17.636621 -26.322712 52.411155 -19.466645 -14.395592 29.410352 0.000000 -8.774814 0.000000 0.000000 0.000000 -0.000004 -0.609776 -1.795653 -3.889325 -4.807087 -11.046803 -2.937845 0.000000 -20.975994 0.000000 -5.019973 -25.033521 -4.031871 0.000006 0.000000 0.000000 -10.634530 -5.686969 -3.565584 10.573263 -17.922936 -3.113898 0.000000 -13.821193 0.000000 -0.501785 -31.181457 -4.027009 0.000002 0.000000 0.000002 -13.982710 -7.150195 -2.875039 13.772719 -8.401483 -3.218239 0.347728 -34.211501 0.771652 -0.963029 -17.733337 2.621012 0.000000 0.000000 0.000000 -17.346414 -20.095210 -4.201776 21.757546 -1.638370 3.866422 0.000000 -6.338816 0.000000 -1.697594 -22.591709 -6.193992 0.000000 -0.000004 -0.000002 -114.947269 -101.902425 -53.080335 32.551822 -65.107041 8.629691 26.568785 -0.000088 -0.000181 -8.662621 -11.259154 -21.855156 22.182096 -20.375874 49.933272 -16.701795 -16.743521 28.476499 0.000000 -12.690592 0.000000 0.000003 0.000000 0.000000 -0.105919 -1.513855 -4.275878 -5.039037 -5.612866 -2.953552 0.000000 -11.020509 0.000000 -6.111297 -15.895308 -3.840458 0.000000 0.000000 0.000000 -10.283364 -5.680285 -4.341833 11.028282 -11.302392 -2.372630 -1.384272 -14.238564 -6.320108 -0.625450 -26.924139 -3.827588 0.000002 0.000000 0.000002 -13.708517 -7.363472 -3.720934 18.141130 -14.052722 -3.242670 0.000000 -18.787243 0.000000 -0.429714 -8.456029 2.555498 0.000000 0.000000 0.000000 -15.923531 -20.094472 -5.473576 30.419190 -7.190812 1.735924 0.000000 -8.162914 0.000000 -1.861911 -22.861429 -6.167925 0.000000 -0.000003 -0.000001 -177.687451 -0.798149 -21.876177 9.327643 0.000250 0.000227 -81.378651 -0.804668 -5.383418 -4.387158 1.525068 2.148214 -0.999998 0.000000 0.000000 3.073642 -6.253045 -26.237561 10.185610 -0.000108 0.000386 -80.045273 1.501105 -8.770414 -3.410923 0.595318 1.665735 -1.000001 0.000000 0.000000
0.000000 0.000000 0.000000 0.000000 0.000000 0.000000 0.967882 98.995117 -3.253568 91.209287 0.687880 94.454896 -3.611301 0.254235 0.254406 -11.619216 -0.014010 -0.150867 17.290554 -1.021900 -2.429628 21.698152 -0.268760 2.648178 -2.523519 -0.766972 -4.137558 -29.903202 -3.852073 -3.142589 0.000006 0.000000 0.000000 0.000006 0.000000 0.000000 0.007001 0.000052 0.000310 0.006999 0.000052 0.000310 68.424986 -106.296728 -57.353459 22.776080 -64.651661 6.243728 21.608918 -0.000041 -0.000561 -0.322989 -11.627036 -8.706204 17.636621 -26.322712 52.411155 -19.466645 -14.395592 29.410352 0.000000 -8.774814 0.000000 0.000000 0.000000 -0.000004 -0.609776 -1.795653 -3.889325 -4.807087 -11.046803 -2.937845 0.000000 -20.975994 0.000000 -5.019973 -25.033521 -4.031871 0.000006 0.000000 0.000000 -10.634530 -5.686969 -3.565584 10.573263 -17.922936 -3.113898 0.000000 -13.821193 0.000000 -0.501785 -31.181457 -4.027009 0.000002 0.000000 0.000002 -13.982710 -7.150195 -2.875039 13.772719 -8.401483 -3.218239 0.347728 -34.211501 0.771652 -0.963029 -17.733337 2.621012 0.000000 0.000000 0.000000 -17.346414 -20.095210 -4.201776 21.757546 -1.638370 3.866422 0.000000 -6.338816 0.000000 -1.697594 -22.591709 -6.193992 0.000000 -0.000004 -0.000002 -114.988359 -101.906311 -53.054973 32.595867 -65.090391 8.595450 26.464496 -0.000088 -0.000181 -8.571855 -11.283089 -21.876262 22.182096 -20.375874 49.933272 -16.701795 -16.743521 28.476499 0.000000 -12.690592 0.000000 0.000003 0.000000 0.000000 -0.105919 -1.513855 -4.275878 -5.039037 -5.612866 -2.953552 0.000000 -11.020509 0.000000 -6.111297 -15.895308 -3.840458 0.000000 0.000000 0.000000 -10.283364 -5.680285 -4.341833 11.028282 -11.302392 -2.372630 -1.384272 -14.238564 -6.320108 -0.625450 -26.924139 -3.827588 0.000002 0.000000 0.000002 -13.708517 -7.363472 -3.720934 18.141130 -14.052722 -3.242670 0.000000 -18.787243 0.000000 -0.429714 -8.456029 2.555498 0.000000 0.000000 0.000000 -15.923531 -20.094472 -5.473576 30.419190 -7.190812 1.735924 0.000000 -8.162914 0.000000 -1.861911 -22.861429 -6.167925 0.000000 -0.000003 -0.000001 -177.692871 -0.768236 -21.853135 9.325181 0.000250 0.000227 -81.379623 -0.841355 -5.382460 -4.384359 1.525021 2.148211 -0.999998 0.000000 0.000000 3.023391 -6.309502 -26.310995 10.287459 -0.000109 0.000386 -80.070212 1.582675 -8.756778 -3.400921 0.595130 1.665748 -1.000001 0.000000 0.000000
0.000000 0.000000 0.000000 0.000000 0.000000 0.000000 0.984529 98.994514 -3.262367 91.223002 0.684287 94.446986 -3.607690 0.231966 0.263787 -11.622176 -0.012052 -0.151443 17.285014 -1.047239 -2.436724 21.705490 -0.231512 2.648291 -2.523465 -0.767433 -4.132367 -29.906630 -3.841286 -3.144253 0.000006 0.000000 0.000000 0.000006 0.000000 0.000000 0.007033 0.000052 0.000309 0.007030 0.000052 0.000309 68.219900 -106.340537 -57.122645 22.747280 -64.457319 6.087931 21.549663 -0.000041 -0.000561 -0.280050 -11.715665 -8.611844 17.636621 -26.322712 52.411155 -19.466645 -14.395592 29.410352 0.000000 -8.774814 0.000000 0.000000 0.000000 -0.000004 -0.609776 -1.795653 -3.889325 -4.807087 -11.046803 -2.937845 0.000000 -20.975994 0.000000 -5.019973 -25.033521 -4.031871 0.000006 0.000000 0.000000 -10.634530 -5.686969 -3.565584 10.573263 -17.922936 -3.113898 0.000000 -13.821193 0.000000 -0.501785 -31.181457 -4.027009 0.000002 0.000000 0.000002 -13.982710 -7.150195 -2.875039 13.772719 -8.401483 -3.218239 0.347728 -34.211501 0.771652 -0.963029 -17.733337 2.621012 0.000000 0.000000 0.000000 -17.346414 -20.095210 -4.201776 21.757546 -1.638370 3.866422 0.000000 -6.338816 0.000000 -1.697594 -22.591709 -6.193992 0.000000 -0.000004 -0.000002 -115.032064 -101.908776 -53.027517 32.640413 -65.075999 8.565366 26.358107 -0.000088 -0.000181 -8.475400 -11.306438 -21.898195 22.182096 -20.375874 49.933272 -16.701795 -16.743521 28.476499 0.000000 -12.690592 0.000000 0.000003 0.000000 0.000000 -0.105919 -1.513855 -4.275878 -5.039037 -5.612866 -2.953552 0.000000 -11.020509 0.000000 -6.111297 -15.895308 -3.840458 0.000000 0.000000 0.000000 -10.283364 -5.680285 -4.341833 11.028282 -11.302392 -2.372630 -1.384272 -14.238564 -6.320108 -0.625450 -26.924139 -3.827588 0.000002 0.000000 0.000002 -13.708517 -7.363472 -3.720934 18.141130 -14.052722 -3.242670 0.000000 -18.787243 0.000000 -0.429714 -8.456029 2.555498 0.000000 0.000000 0.000000 -15.923531 -20.094472 -5.473576 30.419190 -7.190812 1.735924 0.000000 -8.162914 0.000000 -1.861911 -22.861429 -6.167925 0.000000 -0.000003 -0.000001 -177.697194 -0.737531 -21.830690 9.319846 0.000250 0.000227 -81.379038 -0.877676 -5.381811 -4.381760 1.524966 2.148222 -0.999998 0.000000 0.000000 2.974096 -6.365873 -26.386476 10.387284 -0.000109 0.000385 -80.094190 1.665911 -8.742211 -3.390816 0.594939 1.665760 -1.000001 0.000000 0.000000
0.000000 0.000000 0.000000 0.000000 0.000000 0.000000 0.999513 98.993942 -3.267409 91.235736 0.681111 94.439013 -3.603414 0.208477 0.272410 -11.624367 -0.010924 -0.151837 17.279458 -1.072122 -2.443545 21.712782 -0.190385 2.648424 -2.523453 -0.767853 -4.127869 -29.910474 -3.831075 -3.146524 0.000006 0.000000 0.000000 0.000006 0.000000 0.000000 0.007055 0.000052 0.000308 0.007052 0.000052 0.000308 68.030295 -106.379604 -56.909863 22.712772 -64.262078 5.929888 21.483378 -0.000041 -0.000561 -0.240655 -11.789671 -8.517923 17.636621 -26.322712 52.411155 -19.466645 -14.395592 29.410352 0.000000 -8.774814 0.000000 0.000000 0.000000 -0.000004 -0.609776 -1.795653 -3.889325 -4.807087 -11.046803 -2.937845 0.000000 -20.975994 0.000000 -5.019973 -25.033521 -4.031871 0.000006 0.000000 0.000000 -10.634530 -5.686969 -3.565584 10.573263 -17.922936 -3.113898 0.000000 -13.821193 0.000000 -0.501785 -31.181457 -4.027009 0.000002 0.000000 0.000002 -13.982710 -7.150195 -2.875039 13.772719 -8.401483 -3.218239 0.347728 -34.211501 0.771652 -0.963029 -17.733337 2.621012 0.000000 0.000000 0.000000 -17.346414 -20.095210 -4.201776 21.757546 -1.638370 3.866422 0.000000 -6.338816 0.000000 -1.697594 -22.591709 -6.193992 0.000000 -0.000004 -0.000002 -115.070442 -101.914111 -53.004336 32.690723 -65.057299 8.521085 26.249691 -0.000087 -0.000181 -8.387227 -11.331122 -21.918654 22.182096 -20.375874 49.933272 -16.701795 -16.743521 28.476499 0.000000 -12.690592 0.000000 0.000003 0.000000 0.000000 -0.105919 -1.513855 -4.275878 -5.039037 -5.612866 -2.953552 0.000000 -11.020509 0.000000 -6.111297 -15.895308 -3.840458 0.000000 0.000000 0.000000 -10.283364 -5.680285 -4.341833 11.028282 -11.302392 -2.372630 -1.384272 -14.238564 -6.320108 -0.625450 -26.924139 -3.827588 0.000002 0.000000 0.000002 -13.708517 -7.363472 -3.720934 18.141130 -14.052722 -3.242670 0.000000 -18.787243 0.000000 -0.429714 -8.456029 2.555498 0.000000 0.000000 0.000000 -15.923531 -20.094472 -5.473576 30.419190 -7.190812 1.735924 0.000000 -8.162914 0.000000 -1.861911 -22.861429 -6.167925 0.000000 -0.000003 -0.000001 -177.703195 -0.708127 -21.807209 9.319042 0.000250 0.000227 -81.380865 -0.914684 -5.380517 -4.378661 1.524911 2.148223 -0.999998 0.000000 0.000000 2.923309 -6.422326 -26.457815 10.490527 -0.000110 0.000385 -80.119969 1.745819 -8.729607 -3.381015 0.594754 1.665773 -1.000001 0.000000 0.000000
